<?xml version="1.0" standalone="no"?>
<!DOCTYPE svg PUBLIC "-//W3C//DTD SVG 20010904//EN"
 "http://www.w3.org/TR/2001/REC-SVG-20010904/DTD/svg10.dtd">
<svg version="1.0" xmlns="http://www.w3.org/2000/svg"
 width="1920.000000pt" height="1920.000000pt" viewBox="0 0 1920.000000 1920.000000"
 preserveAspectRatio="xMidYMid meet">
<metadata>
Created by potrace 1.11, written by Peter Selinger 2001-2013
</metadata>
<g transform="translate(0.000000,1920.000000) scale(0.100000,-0.100000)"
fill="#000000" stroke="none">
<path d="M9339 14226 c-2 -2 -49 -7 -104 -11 -55 -3 -149 -13 -210 -21 -106
-13 -127 -17 -205 -30 -19 -3 -46 -8 -60 -10 -14 -2 -36 -7 -50 -10 -14 -3
-36 -8 -50 -10 -114 -19 -426 -106 -605 -169 -464 -163 -939 -427 -1326 -735
-316 -252 -606 -552 -851 -880 -364 -488 -648 -1098 -783 -1678 -55 -234 -89
-457 -113 -727 -15 -168 -5 -739 14 -839 2 -10 6 -44 9 -75 9 -84 49 -326 59
-359 3 -9 8 -30 11 -47 9 -55 13 -73 49 -207 48 -182 142 -463 196 -583 4 -11
17 -40 27 -65 67 -165 245 -497 371 -690 94 -143 278 -391 347 -466 5 -6 35
-40 65 -75 62 -72 296 -309 380 -384 560 -500 1226 -857 1946 -1040 95 -25
188 -47 206 -50 18 -3 69 -12 113 -21 84 -15 109 -19 190 -29 51 -6 102 -13
142 -20 182 -30 798 -26 1028 6 39 5 85 12 104 14 74 10 121 17 221 37 120 23
118 22 185 38 28 6 57 13 65 15 315 67 839 276 1181 472 183 105 541 350 621
426 7 6 40 34 73 62 103 85 146 125 290 270 153 154 245 254 245 267 0 4 4 8
8 8 5 0 22 19 39 42 17 24 40 52 50 63 10 11 29 36 43 55 13 19 27 37 30 40
20 16 152 207 255 370 83 131 213 376 275 515 12 28 28 64 35 80 50 111 153
397 186 515 7 25 14 50 15 55 15 49 74 287 77 310 3 17 14 80 25 140 20 105
24 129 37 235 24 187 30 312 29 580 0 233 -7 386 -19 470 -2 14 -7 52 -10 85
-4 33 -8 71 -10 85 -3 14 -7 43 -10 65 -3 22 -13 76 -21 120 -9 44 -18 94 -21
110 -3 17 -23 101 -44 187 -94 373 -239 744 -424 1083 -74 135 -263 438 -285
455 -3 3 -26 34 -52 70 -234 331 -611 710 -978 982 -551 409 -1177 686 -1860
822 -120 24 -299 51 -410 62 -36 3 -78 8 -95 10 -37 6 -641 15 -646 10z m531
-650 c131 -10 255 -23 300 -31 8 -1 35 -6 60 -9 25 -4 90 -16 145 -27 55 -12
111 -23 125 -25 14 -3 33 -7 42 -10 9 -3 25 -7 35 -9 56 -12 273 -79 368 -113
222 -80 478 -200 664 -312 46 -27 88 -50 93 -50 4 0 8 -4 8 -10 0 -5 4 -10 9
-10 12 0 181 -114 266 -179 560 -425 991 -970 1269 -1601 54 -123 148 -379
171 -470 3 -8 18 -67 35 -130 16 -63 33 -131 36 -150 3 -19 11 -62 19 -95 7
-33 17 -85 21 -115 4 -30 8 -57 9 -60 1 -3 4 -34 9 -70 4 -36 9 -78 11 -95 30
-250 20 -767 -20 -975 -5 -27 -11 -62 -21 -125 -14 -92 -87 -401 -110 -465 -3
-8 -5 -17 -6 -20 0 -7 -68 -201 -78 -225 -5 -11 -32 -76 -61 -145 -161 -386
-404 -772 -690 -1095 -108 -122 -384 -387 -453 -435 -12 -8 -27 -20 -35 -28
-8 -7 -39 -32 -70 -55 -31 -22 -58 -44 -61 -47 -8 -11 -327 -220 -335 -220 -4
0 -20 -9 -35 -20 -33 -23 -305 -163 -395 -202 -271 -119 -618 -224 -910 -274
-129 -22 -127 -22 -191 -29 -33 -4 -70 -8 -84 -11 -106 -16 -486 -22 -665 -10
-217 15 -262 21 -540 71 -137 25 -375 92 -375 105 0 6 3 10 8 10 4 0 28 20 53
43 25 23 83 76 129 117 46 41 109 97 140 125 30 27 69 61 85 76 17 15 39 36
51 46 23 19 160 141 178 158 6 6 49 44 96 85 80 70 152 135 190 170 9 8 52 46
96 85 76 67 150 133 184 165 8 8 74 67 145 130 72 63 152 135 178 160 l49 47
-56 74 c-95 126 -162 281 -190 444 -16 91 -19 246 -5 320 4 28 10 61 13 75 8
52 65 207 96 265 143 264 376 450 660 526 163 44 365 46 525 4 180 -47 351
-143 471 -264 l51 -52 64 58 c36 32 100 90 144 128 43 39 128 115 189 169 61
55 147 131 191 170 125 112 180 161 185 166 3 3 43 39 90 80 47 41 90 80 96
85 6 6 39 36 75 67 117 103 126 113 143 145 21 41 20 48 -4 99 -19 39 -29 46
-138 95 -64 29 -148 67 -187 84 -38 18 -122 56 -185 85 -63 29 -149 68 -190
87 -41 19 -140 64 -220 100 -142 63 -209 94 -300 137 -87 41 -66 46 -500 -120
-36 -14 -69 -26 -75 -28 -5 -2 -23 -8 -40 -15 -16 -7 -73 -28 -125 -47 -52
-19 -104 -39 -115 -44 -11 -5 -47 -19 -80 -30 -33 -12 -69 -25 -80 -30 -26
-12 -112 -44 -325 -124 -262 -98 -257 -95 -312 -199 -25 -48 -47 -90 -47 -92
-1 -5 -110 -228 -329 -675 -251 -514 -348 -712 -452 -925 -59 -121 -164 -335
-232 -475 -69 -140 -167 -340 -218 -445 -51 -104 -172 -352 -270 -550 -97
-198 -205 -419 -240 -491 l-63 -132 -29 10 c-43 15 -324 158 -398 203 -64 38
-196 122 -234 147 -37 26 -252 184 -274 203 -321 269 -550 517 -781 848 -33
48 -61 89 -61 91 0 2 -16 28 -36 57 -20 30 -40 63 -45 74 -5 11 -23 43 -39 70
-47 78 -193 380 -229 475 -18 47 -37 94 -42 105 -37 83 -148 476 -163 580 -4
22 -8 47 -11 55 -6 21 -12 58 -30 175 -43 295 -51 682 -19 990 5 55 57 373 68
420 122 531 327 1001 615 1415 43 62 199 269 211 280 3 3 34 39 69 80 36 41
123 134 195 205 435 432 954 755 1531 952 91 30 317 95 376 107 13 3 47 10 74
16 43 9 171 30 353 59 30 5 52 4 52 -1 0 -7 -365 -496 -413 -553 -4 -5 -94
-122 -198 -260 -105 -137 -235 -308 -290 -380 -105 -137 -429 -564 -962 -1264
-177 -233 -343 -451 -369 -485 -113 -145 -479 -629 -492 -649 -38 -58 -17
-137 44 -168 31 -16 79 -19 430 -24 217 -4 473 -8 568 -10 l174 -4 -7 27 c-83
326 -34 615 145 857 261 351 735 480 1141 310 81 -34 210 -118 272 -178 34
-32 47 -40 48 -29 1 10 2 28 4 42 3 50 16 186 20 210 3 22 6 61 20 235 4 50
16 178 20 215 2 19 7 69 10 110 3 41 8 91 10 110 2 19 7 71 10 115 3 44 8 96
10 115 4 41 12 126 21 230 3 41 7 82 9 90 2 8 6 62 10 120 3 58 8 112 10 120
2 8 6 53 10 100 3 47 8 101 10 120 3 19 7 67 10 105 2 39 7 90 9 115 3 25 8
77 11 115 4 39 8 86 10 105 7 77 17 197 20 235 4 44 17 184 19 200 1 6 5 15 8
21 7 11 184 11 338 0z"/>
</g>
</svg>
